<svg width="266" height="54" viewBox="0 0 266 54" fill="none" xmlns="http://www.w3.org/2000/svg">
<mask id="mask0_4110_4409" style="mask-type:alpha" maskUnits="userSpaceOnUse" x="0" y="0" width="48" height="48">
<path d="M34.2287 13.804L34.6508 0.70896L25.0225 9.59371L24.5023 10.0736L24.0184 9.55727L15.0629 0L14.5395 13.0869L14.5113 13.794L13.804 13.7712L0.708977 13.3492L9.59373 22.9775L10.0737 23.4977L9.5572 23.9816L0 32.9372L13.0869 33.4604L13.7941 33.4887L13.7712 34.1961L13.3484 47.2914L22.9775 38.4063L23.4977 37.9264L23.9816 38.4428L32.9372 48L33.4604 34.9131L33.4887 34.206L34.196 34.2287L47.2914 34.6517L38.4063 25.0225L37.9264 24.5024L38.4428 24.0184L48 15.0629L34.913 14.5395L34.206 14.5113L34.2287 13.804Z" fill="white"/>
</mask>
<g mask="url(#mask0_4110_4409)">
<rect x="-5" width="59" height="51" fill="white"/>
</g>
<path d="M67.8906 16.5781C67.8906 15.25 67.875 14.0938 67.8438 13.1094C67.8125 12.1094 67.7656 11.25 67.7031 10.5312C67.6406 9.79688 67.5625 9.1875 67.4688 8.70312C67.3906 8.21875 67.3047 7.8125 67.2109 7.48438V7.39062C67.5234 7.40625 67.8516 7.41406 68.1953 7.41406C68.4922 7.42969 68.8203 7.4375 69.1797 7.4375C69.5547 7.4375 69.9375 7.4375 70.3281 7.4375C70.8906 7.4375 71.6484 7.38281 72.6016 7.27344C73.5703 7.16406 74.8125 7.10938 76.3281 7.10938C77.7344 7.10938 79.0312 7.29688 80.2188 7.67188C81.4062 8.03125 82.4297 8.55469 83.2891 9.24219C84.1641 9.92969 84.8438 10.7812 85.3281 11.7969C85.8281 12.7969 86.0781 13.9375 86.0781 15.2188C86.0781 16.2969 85.9297 17.2656 85.6328 18.125C85.3359 18.9688 84.9141 19.7109 84.3672 20.3516C83.8359 20.9766 83.1875 21.5078 82.4219 21.9453C81.6719 22.3672 80.8438 22.7031 79.9375 22.9531C81.2656 23.1562 82.4766 23.5 83.5703 23.9844C84.6641 24.4531 85.6016 25.0469 86.3828 25.7656C87.1797 26.4844 87.7891 27.3281 88.2109 28.2969C88.6484 29.25 88.8672 30.3125 88.8672 31.4844C88.8672 34.7812 87.7812 37.2578 85.6094 38.9141C83.4375 40.5547 80.1875 41.375 75.8594 41.375C75.3906 41.375 74.8438 41.3516 74.2188 41.3047C73.5938 41.2734 72.9531 41.2344 72.2969 41.1875C71.6562 41.1406 71.0234 41.0938 70.3984 41.0469C69.7734 41.0156 69.2266 41 68.7578 41H67.2109V40.9062C67.3047 40.5781 67.3906 40.1719 67.4688 39.6875C67.5625 39.2031 67.6406 38.6016 67.7031 37.8828C67.7656 37.1641 67.8125 36.3125 67.8438 35.3281C67.875 34.3281 67.8906 33.1641 67.8906 31.8359V16.5781ZM76.4922 24.3828C75.4297 24.3828 74.5391 24.4219 73.8203 24.5C73.1016 24.5781 72.5469 24.6562 72.1562 24.7344V31.8359C72.1562 33.6641 72.1875 35.1719 72.25 36.3594C72.3125 37.5469 72.3984 38.5156 72.5078 39.2656C73.1016 39.3438 73.6953 39.4141 74.2891 39.4766C74.8828 39.5391 75.3594 39.5703 75.7188 39.5703C78.6406 39.5703 80.7734 38.9219 82.1172 37.625C83.4766 36.3125 84.1562 34.3047 84.1562 31.6016C84.1562 30.5391 83.9922 29.5703 83.6641 28.6953C83.3516 27.8047 82.875 27.0391 82.2344 26.3984C81.6094 25.7578 80.8125 25.2656 79.8438 24.9219C78.8906 24.5625 77.7734 24.3828 76.4922 24.3828ZM72.1562 22.625C72.5938 22.6719 72.9844 22.7031 73.3281 22.7188C73.6719 22.7188 74.0391 22.7188 74.4297 22.7188C75.4922 22.7188 76.4609 22.5703 77.3359 22.2734C78.2109 21.9609 78.9531 21.5 79.5625 20.8906C80.1875 20.2812 80.6719 19.5234 81.0156 18.6172C81.3594 17.6953 81.5312 16.625 81.5312 15.4062C81.5312 14.3906 81.4062 13.4688 81.1562 12.6406C80.9062 11.8125 80.5312 11.1094 80.0312 10.5312C79.5469 9.9375 78.9453 9.48437 78.2266 9.17188C77.5078 8.85938 76.6875 8.70312 75.7656 8.70312C75.1719 8.70312 74.6484 8.72656 74.1953 8.77344C73.7578 8.82031 73.3828 8.875 73.0703 8.9375C72.7109 9 72.4062 9.07812 72.1562 9.17188V22.625ZM94.4219 26.1641C94.4219 24.8359 94.3984 23.6797 94.3516 22.6953C94.3203 21.6953 94.2734 20.8359 94.2109 20.1172C94.1641 19.3984 94.0938 18.7969 94 18.3125C93.9219 17.8281 93.8359 17.4219 93.7422 17.0938V17H99.1562V17.0938C99.0312 17.4531 98.9219 17.8906 98.8281 18.4062C98.75 18.9219 98.6875 19.5859 98.6406 20.3984C99.2188 19.9141 99.8203 19.4375 100.445 18.9688C101.07 18.5 101.711 18.0859 102.367 17.7266C103.023 17.3672 103.688 17.0781 104.359 16.8594C105.047 16.6406 105.734 16.5312 106.422 16.5312C106.844 16.5312 107.211 16.5547 107.523 16.6016C107.836 16.6328 108.117 16.6875 108.367 16.7656C108.617 16.8281 108.844 16.9062 109.047 17C109.25 17.0781 109.445 17.1562 109.633 17.2344L108.484 21.7109L108.086 21.6172C107.898 20.9297 107.547 20.3828 107.031 19.9766C106.516 19.5547 105.812 19.3438 104.922 19.3438C104.438 19.3438 103.93 19.4297 103.398 19.6016C102.867 19.7734 102.328 20.0156 101.781 20.3281C101.234 20.625 100.688 20.9766 100.141 21.3828C99.5938 21.7734 99.0625 22.1875 98.5469 22.625C98.5156 23.0781 98.5 23.5703 98.5 24.1016C98.5 24.6328 98.5 25.1953 98.5 25.7891V31.8359C98.5 33.1641 98.5156 34.3281 98.5469 35.3281C98.5781 36.3125 98.625 37.1641 98.6875 37.8828C98.75 38.6016 98.8203 39.2031 98.8984 39.6875C98.9766 40.1719 99.0625 40.5781 99.1562 40.9062V41H93.7422V40.9062C93.8359 40.5781 93.9219 40.1719 94 39.6875C94.0938 39.2031 94.1641 38.6016 94.2109 37.8828C94.2734 37.1641 94.3203 36.3125 94.3516 35.3281C94.3984 34.3281 94.4219 33.1641 94.4219 31.8359V26.1641ZM113.406 26.1641C113.406 24.8359 113.383 23.6797 113.336 22.6953C113.305 21.6953 113.258 20.8359 113.195 20.1172C113.148 19.3984 113.078 18.7969 112.984 18.3125C112.906 17.8281 112.82 17.4219 112.727 17.0938V17H118.141V17.0938C118.047 17.4219 117.961 17.8281 117.883 18.3125C117.805 18.7969 117.734 19.3984 117.672 20.1172C117.609 20.8359 117.562 21.6953 117.531 22.6953C117.5 23.6797 117.484 24.8359 117.484 26.1641V31.8359C117.484 33.1641 117.5 34.3281 117.531 35.3281C117.562 36.3125 117.609 37.1641 117.672 37.8828C117.734 38.6016 117.805 39.2031 117.883 39.6875C117.961 40.1719 118.047 40.5781 118.141 40.9062V41H112.727V40.9062C112.82 40.5781 112.906 40.1719 112.984 39.6875C113.078 39.2031 113.148 38.6016 113.195 37.8828C113.258 37.1641 113.305 36.3125 113.336 35.3281C113.383 34.3281 113.406 33.1641 113.406 31.8359V26.1641ZM112.914 9.89844C112.914 9.55469 112.977 9.23438 113.102 8.9375C113.242 8.625 113.422 8.35937 113.641 8.14062C113.859 7.90625 114.117 7.72656 114.414 7.60156C114.727 7.46094 115.062 7.39062 115.422 7.39062C115.781 7.39062 116.109 7.46094 116.406 7.60156C116.719 7.72656 116.984 7.90625 117.203 8.14062C117.438 8.35937 117.617 8.625 117.742 8.9375C117.883 9.23438 117.953 9.55469 117.953 9.89844C117.953 10.6172 117.711 11.2188 117.227 11.7031C116.742 12.1875 116.141 12.4297 115.422 12.4297C115.062 12.4297 114.727 12.3672 114.414 12.2422C114.117 12.1016 113.859 11.9219 113.641 11.7031C113.422 11.4688 113.242 11.2031 113.102 10.9062C112.977 10.5938 112.914 10.2578 112.914 9.89844ZM133.914 51.7109C135.18 51.7109 136.25 51.5703 137.125 51.2891C138 51.0234 138.719 50.6484 139.281 50.1641C139.859 49.6797 140.297 49.0938 140.594 48.4062C140.906 47.7344 141.133 46.9922 141.273 46.1797C141.43 45.3672 141.516 44.5 141.531 43.5781C141.562 42.6562 141.578 41.7031 141.578 40.7188V39.9453C140.812 40.3516 139.891 40.7031 138.812 41C137.734 41.2812 136.516 41.4219 135.156 41.4219C133.297 41.4219 131.609 41.1328 130.094 40.5547C128.578 39.9766 127.281 39.1484 126.203 38.0703C125.141 36.9922 124.32 35.6875 123.742 34.1562C123.164 32.6094 122.875 30.875 122.875 28.9531C122.875 27.1875 123.156 25.5469 123.719 24.0312C124.297 22.5156 125.102 21.2031 126.133 20.0938C127.18 18.9844 128.422 18.1172 129.859 17.4922C131.312 16.8516 132.914 16.5312 134.664 16.5312C135.414 16.5312 136.102 16.5938 136.727 16.7188C137.352 16.8438 137.93 17.0156 138.461 17.2344C139.008 17.4375 139.516 17.6797 139.984 17.9609C140.469 18.2266 140.938 18.5156 141.391 18.8281L141.156 17.0938V17H146.336V17.0938C146.242 17.4219 146.148 17.8281 146.055 18.3125C145.977 18.7969 145.906 19.3984 145.844 20.1172C145.797 20.8359 145.75 21.6953 145.703 22.6953C145.672 23.6797 145.656 24.8359 145.656 26.1641V42.1016C145.656 43.5391 145.461 44.9375 145.07 46.2969C144.695 47.6719 144.047 48.8906 143.125 49.9531C142.219 51.0156 141.016 51.8672 139.516 52.5078C138.016 53.1484 136.148 53.4688 133.914 53.4688C133.133 53.4688 132.344 53.3906 131.547 53.2344C130.75 53.0938 129.992 52.9141 129.273 52.6953C128.555 52.4922 127.906 52.2656 127.328 52.0156C126.75 51.7656 126.289 51.5469 125.945 51.3594L125.219 46.8594L125.594 46.7656C125.969 47.5781 126.477 48.2891 127.117 48.8984C127.773 49.5234 128.484 50.0391 129.25 50.4453C130.016 50.8672 130.805 51.1797 131.617 51.3828C132.445 51.6016 133.211 51.7109 133.914 51.7109ZM136.211 39.7109C137.336 39.7109 138.352 39.5234 139.258 39.1484C140.18 38.7734 140.953 38.3359 141.578 37.8359V26.1641C141.578 25.2891 141.57 24.5 141.555 23.7969C141.539 23.0781 141.531 22.4297 141.531 21.8516C141.156 21.2734 140.719 20.7656 140.219 20.3281C139.734 19.875 139.211 19.5 138.648 19.2031C138.102 18.8906 137.539 18.6562 136.961 18.5C136.383 18.3281 135.812 18.2422 135.25 18.2422C134.062 18.2422 132.992 18.4609 132.039 18.8984C131.086 19.3359 130.273 19.9688 129.602 20.7969C128.945 21.6094 128.438 22.6094 128.078 23.7969C127.734 24.9688 127.562 26.3047 127.562 27.8047C127.562 29.4922 127.75 31.0625 128.125 32.5156C128.5 33.9688 129.047 35.2344 129.766 36.3125C130.5 37.375 131.406 38.2109 132.484 38.8203C133.562 39.4141 134.805 39.7109 136.211 39.7109ZM169 25.2031C169 23.1406 168.586 21.625 167.758 20.6562C166.93 19.6875 165.82 19.2031 164.43 19.2031C163.914 19.2031 163.336 19.3125 162.695 19.5312C162.07 19.7344 161.422 20.0156 160.75 20.375C160.094 20.7344 159.438 21.1562 158.781 21.6406C158.125 22.1094 157.516 22.6094 156.953 23.1406V31.8359C156.953 33.1641 156.969 34.3281 157 35.3281C157.031 36.3125 157.078 37.1641 157.141 37.8828C157.203 38.6016 157.273 39.2031 157.352 39.6875C157.43 40.1719 157.516 40.5781 157.609 40.9062V41H152.195V40.9062C152.289 40.5781 152.375 40.1719 152.453 39.6875C152.547 39.2031 152.617 38.6016 152.664 37.8828C152.727 37.1641 152.773 36.3125 152.805 35.3281C152.852 34.3281 152.875 33.1641 152.875 31.8359V15.125C152.875 13.7969 152.852 12.6406 152.805 11.6562C152.773 10.6562 152.727 9.79688 152.664 9.07812C152.617 8.35937 152.547 7.75781 152.453 7.27344C152.375 6.78906 152.289 6.38281 152.195 6.05469V5.96094H157.609V6.05469C157.516 6.38281 157.43 6.78906 157.352 7.27344C157.273 7.75781 157.203 8.35937 157.141 9.07812C157.078 9.79688 157.031 10.6562 157 11.6562C156.969 12.6406 156.953 13.7969 156.953 15.125V21.125C157.578 20.5625 158.266 20.0078 159.016 19.4609C159.781 18.9141 160.57 18.4219 161.383 17.9844C162.195 17.5469 163.023 17.1953 163.867 16.9297C164.711 16.6641 165.539 16.5312 166.352 16.5312C167.57 16.5312 168.602 16.7422 169.445 17.1641C170.305 17.5859 171 18.1406 171.531 18.8281C172.078 19.5156 172.469 20.3047 172.703 21.1953C172.953 22.0703 173.078 22.9609 173.078 23.8672V31.8359C173.078 33.1641 173.094 34.3281 173.125 35.3281C173.156 36.3125 173.203 37.1641 173.266 37.8828C173.328 38.6016 173.398 39.2031 173.477 39.6875C173.555 40.1719 173.641 40.5781 173.734 40.9062V41H168.32V40.9062C168.414 40.5781 168.5 40.1719 168.578 39.6875C168.672 39.2031 168.742 38.6016 168.789 37.8828C168.852 37.1641 168.898 36.3125 168.93 35.3281C168.977 34.3281 169 33.1641 169 31.8359V25.2031ZM188.641 39.6172C189.109 39.6172 189.57 39.5312 190.023 39.3594C190.492 39.1875 190.938 38.9531 191.359 38.6562C191.797 38.3594 192.211 38.0234 192.602 37.6484C193.008 37.2578 193.383 36.8516 193.727 36.4297L193.961 36.5469L192.438 40.3203C192.25 40.4141 192.016 40.5312 191.734 40.6719C191.469 40.7969 191.141 40.9141 190.75 41.0234C190.375 41.1484 189.93 41.25 189.414 41.3281C188.898 41.4219 188.289 41.4688 187.586 41.4688C185.492 41.4688 183.859 40.9062 182.688 39.7812C181.531 38.6406 180.953 36.8672 180.953 34.4609V18.8281L177.016 18.9688V16.9062C177.5 16.9375 178.078 16.9609 178.75 16.9766C179.422 16.9922 180.156 17 180.953 17C180.938 15.8906 180.906 14.9141 180.859 14.0703C180.828 13.2109 180.781 12.4688 180.719 11.8438C180.672 11.2031 180.609 10.6641 180.531 10.2266C180.453 9.78906 180.375 9.42188 180.297 9.125V9.03125H185.711V9.125C185.617 9.42188 185.531 9.78906 185.453 10.2266C185.375 10.6641 185.305 11.1953 185.242 11.8203C185.195 12.4453 185.148 13.1875 185.102 14.0469C185.07 14.8906 185.047 15.875 185.031 17C186.016 16.9844 186.977 16.9688 187.914 16.9531C188.867 16.9219 189.727 16.8906 190.492 16.8594C191.273 16.8125 191.93 16.7734 192.461 16.7422C193.008 16.6953 193.367 16.6562 193.539 16.625L193.117 19.0156C192.32 19 191.484 18.9766 190.609 18.9453C189.859 18.9141 189 18.8906 188.031 18.875C187.062 18.8594 186.062 18.8438 185.031 18.8281V34.9531C185.031 35.9219 185.133 36.7109 185.336 37.3203C185.555 37.9141 185.828 38.3828 186.156 38.7266C186.5 39.0703 186.883 39.3047 187.305 39.4297C187.742 39.5547 188.188 39.6172 188.641 39.6172ZM221.57 41V40.9062C221.602 40.8281 221.625 40.7109 221.641 40.5547C221.656 40.3984 221.664 40.2578 221.664 40.1328C221.664 39.6484 221.594 39.1172 221.453 38.5391C221.328 37.9453 221.078 37.2109 220.703 36.3359L217.867 29.9609C216.992 29.9297 215.828 29.9141 214.375 29.9141C212.922 29.9141 211.352 29.9141 209.664 29.9141C208.43 29.9141 207.234 29.9141 206.078 29.9141C204.938 29.9141 203.906 29.9297 202.984 29.9609L200.289 36.1484C200.055 36.7266 199.805 37.3594 199.539 38.0469C199.273 38.7344 199.141 39.4297 199.141 40.1328C199.141 40.3359 199.156 40.5078 199.188 40.6484C199.219 40.7734 199.25 40.8594 199.281 40.9062V41H194.5V40.9062C194.781 40.6094 195.133 40.0859 195.555 39.3359C195.977 38.5703 196.438 37.6172 196.938 36.4766L210.367 6.6875H212.242L224.969 35.3281C225.266 36 225.57 36.6562 225.883 37.2969C226.211 37.9219 226.516 38.4844 226.797 38.9844C227.078 39.4844 227.328 39.9062 227.547 40.25C227.766 40.5938 227.914 40.8125 227.992 40.9062V41H221.57ZM206.383 27.8984C207.289 27.8984 208.219 27.8984 209.172 27.8984C210.125 27.8828 211.055 27.875 211.961 27.875C212.883 27.8594 213.766 27.8516 214.609 27.8516C215.453 27.8359 216.219 27.8203 216.906 27.8047L210.32 12.9219L203.852 27.8984H206.383ZM231.297 26.1641C231.297 24.8359 231.273 23.6797 231.227 22.6953C231.195 21.6953 231.148 20.8359 231.086 20.1172C231.039 19.3984 230.969 18.7969 230.875 18.3125C230.797 17.8281 230.711 17.4219 230.617 17.0938V17H236.031V17.0938C235.938 17.4219 235.852 17.8281 235.773 18.3125C235.695 18.7969 235.625 19.3984 235.562 20.1172C235.5 20.8359 235.453 21.6953 235.422 22.6953C235.391 23.6797 235.375 24.8359 235.375 26.1641V31.8359C235.375 33.1641 235.391 34.3281 235.422 35.3281C235.453 36.3125 235.5 37.1641 235.562 37.8828C235.625 38.6016 235.695 39.2031 235.773 39.6875C235.852 40.1719 235.938 40.5781 236.031 40.9062V41H230.617V40.9062C230.711 40.5781 230.797 40.1719 230.875 39.6875C230.969 39.2031 231.039 38.6016 231.086 37.8828C231.148 37.1641 231.195 36.3125 231.227 35.3281C231.273 34.3281 231.297 33.1641 231.297 31.8359V26.1641ZM230.805 9.89844C230.805 9.55469 230.867 9.23438 230.992 8.9375C231.133 8.625 231.312 8.35937 231.531 8.14062C231.75 7.90625 232.008 7.72656 232.305 7.60156C232.617 7.46094 232.953 7.39062 233.312 7.39062C233.672 7.39062 234 7.46094 234.297 7.60156C234.609 7.72656 234.875 7.90625 235.094 8.14062C235.328 8.35937 235.508 8.625 235.633 8.9375C235.773 9.23438 235.844 9.55469 235.844 9.89844C235.844 10.6172 235.602 11.2188 235.117 11.7031C234.633 12.1875 234.031 12.4297 233.312 12.4297C232.953 12.4297 232.617 12.3672 232.305 12.2422C232.008 12.1016 231.75 11.9219 231.531 11.7031C231.312 11.4688 231.133 11.2031 230.992 10.9062C230.867 10.5938 230.805 10.2578 230.805 9.89844ZM253.422 16.5781C254.062 16.5781 254.703 16.6328 255.344 16.7422C255.984 16.8516 256.609 17.0078 257.219 17.2109C257.828 17.4141 258.406 17.6641 258.953 17.9609C259.5 18.2578 259.992 18.5938 260.43 18.9688V15.125C260.43 13.7969 260.414 12.6406 260.383 11.6562C260.352 10.6562 260.305 9.79688 260.242 9.07812C260.18 8.35937 260.109 7.75781 260.031 7.27344C259.953 6.78906 259.867 6.38281 259.773 6.05469V5.96094H265.188V6.05469C265.094 6.38281 265 6.78906 264.906 7.27344C264.828 7.75781 264.758 8.35937 264.695 9.07812C264.648 9.79688 264.602 10.6562 264.555 11.6562C264.523 12.6406 264.508 13.7969 264.508 15.125V31.8359C264.508 33.1641 264.523 34.3281 264.555 35.3281C264.602 36.3125 264.648 37.1641 264.695 37.8828C264.758 38.6016 264.828 39.2031 264.906 39.6875C265 40.1719 265.094 40.5781 265.188 40.9062V41H260.008V40.9062C260.055 40.7812 260.094 40.6016 260.125 40.3672C260.156 40.1172 260.195 39.8125 260.242 39.4531C259.445 39.9531 258.445 40.4062 257.242 40.8125C256.039 41.2188 254.641 41.4219 253.047 41.4219C251.188 41.4219 249.5 41.1328 247.984 40.5547C246.469 39.9766 245.172 39.1484 244.094 38.0703C243.031 36.9922 242.211 35.6875 241.633 34.1562C241.055 32.6094 240.766 30.875 240.766 28.9531C240.766 27.1875 241.078 25.5547 241.703 24.0547C242.328 22.5391 243.203 21.2266 244.328 20.1172C245.453 19.0078 246.789 18.1406 248.336 17.5156C249.883 16.8906 251.578 16.5781 253.422 16.5781ZM260.43 23.0938C259.805 21.4531 258.906 20.2422 257.734 19.4609C256.578 18.6797 255.273 18.2891 253.82 18.2891C252.602 18.2891 251.477 18.5078 250.445 18.9453C249.414 19.3672 248.531 19.9844 247.797 20.7969C247.062 21.6094 246.484 22.6094 246.062 23.7969C245.656 24.9688 245.453 26.3047 245.453 27.8047C245.453 29.4922 245.641 31.0625 246.016 32.5156C246.391 33.9688 246.938 35.2344 247.656 36.3125C248.391 37.375 249.297 38.2109 250.375 38.8203C251.453 39.4141 252.695 39.7109 254.102 39.7109C254.836 39.7109 255.523 39.625 256.164 39.4531C256.805 39.2812 257.391 39.0625 257.922 38.7969C258.453 38.5312 258.922 38.2422 259.328 37.9297C259.734 37.6016 260.07 37.2812 260.336 36.9688C260.367 36.2969 260.391 35.5312 260.406 34.6719C260.422 33.8125 260.43 32.8672 260.43 31.8359V23.0938Z" fill="white"/>
</svg>
